******************************************************

Oz the Great and Powerful 2013 1080p  x264 - alrmothe

******************************************************

Title : Oz the Great and Powerful
YEAR: 2013
GENRE :   Adventure | Family | Fantasy       
imdb URL http://www.imdb.com/title/tt1623205/
Overall bit rate: 9644 kbps
Format version: Version 4 / Version 2
File size:  8.79 GiB
Duration:  2h 10mn
Sub:Arabic,English
sample:Yes
******************************************************

Video
Format: Matroska
Format : AVC 
Format/Info : Advanced Video Codec 
Format profile : High@L4.1 
Format settings, CABAC : Yes 
Format settings, ReFrames : 4 frames  
Codec ID : V_MPEG4/ISO/AVC  
Bit rate : 9000 kbps 
Width : 1920 pixels 
Height : 800 pixels 
Display aspect ratio : 2:40:1 
Frame rate : 23.976 fps 
Color space : YUV 
Chroma subsampling : 4:2:0 
Bit depth : 8 bits 
Scan type : Progressive 
Bits/(Pixel*Frame) : 0.244 
Stream size: 8.03 GiB 


Audio 
Format: Ac3
Bit rate :640 Kbps
Channel(s) : 6 channels
Channel positions:Front: L C R, Side: L R, LFE
Sampling rate: 48.0 KHz
Bit depth: 16 bits
Compression mode: Lossy
Stream size: 497 GiB
Language : English

******************************************************


Screenshots 
http://img694.imageshack.us/img694/7154/vlcsnap2013052821h07m46.png 
http://img853.imageshack.us/img853/8439/vlcsnap2013052821h08m09.png 
http://img33.imageshack.us/img33/8007/vlcsnap2013052821h08m25.png 
http://img42.imageshack.us/img42/7611/vlcsnap2013052821h08m33.png 
http://img836.imageshack.us/img836/9461/vlcsnap2013052821h10m17.png



Use KMPlayer for the best quality


